#!OML:ASF E:\Style4\Style4.ASF
:FULLY-SPECIFIED
:DEGREES
3160
root 0.625095 16.3735 -0.0547365 4.15368 -2.96627 5.27286
lowerback 14.3685 2.24827 -3.00409
upperback 6.58303 2.56224 0.0741247
thorax -1.23439 1.2166 1.38074
lowerneck 6.38981 -6.71816 -5.37089
upperneck 0.54659 -9.2514 4.02561
head -0.452629 -4.67581 2.3613
rclavicle 5.1684e-015 -2.38542e-015
rhumerus -34.2637 16.6138 -62.428
rradius 136.761
rwrist -74.114
rhand 58.9484 -1.76872
rfingers 7.12502
rthumb 74.3388 26.9782
lclavicle 5.1684e-015 -2.38542e-015
lhumerus -22.6273 -9.41184 58.5028
lradius 142.054
lwrist 76.15
lhand 35.3155 50.4151
lfingers 7.12502
lthumb 58.4117 65.7612
rfemur -32.8595 -4.07143 11.2649
rtibia 63.2588
rfoot -29.4835 -19.3196
rtoes -17.2803
lfemur -29.5536 1.26657 -27.2585
ltibia 58.6818
lfoot -32.1622 13.8375
ltoes -18.5184
3161
root 0.631124 16.3766 -0.0633005 4.30248 -2.97736 5.21367
lowerback 14.2652 2.22916 -2.92276
upperback 6.52587 2.5514 0.106671
thorax -1.23764 1.21292 1.37295
lowerneck 6.38387 -6.69551 -5.56
upperneck 0.527983 -9.23323 4.1514
head -0.443969 -4.66872 2.43503
rclavicle -2.22639e-014 1.19271e-014
rhumerus -34.0452 17.119 -62.0778
rradius 136.78
rwrist -74.3803
rhand 58.5257 -1.61237
rfingers 7.12502
rthumb 74.2154 25.6987
lclavicle -2.22639e-014 1.19271e-014
lhumerus -22.3427 -9.75598 58.1128
lradius 142.177
lwrist 76.1764
lhand 35.0168 50.5129
lfingers 7.12502
lthumb 58.1518 66.0973
rfemur -33.0664 -4.0691 11.3158
rtibia 63.2025
rfoot -29.3033 -19.3898
rtoes -17.5413
lfemur -29.7612 1.24809 -27.2202
ltibia 58.6537
lfoot -32.1071 13.7726
ltoes -18.061
3162
root 0.634319 16.3818 -0.0666517 4.35478 -2.86618 5.19158
lowerback 14.2047 2.19715 -2.86671
upperback 6.5091 2.51981 0.14508
thorax -1.22129 1.19788 1.38805
lowerneck 6.41008 -6.69436 -5.733
upperneck 0.448431 -9.24298 4.2951
head -0.45858 -4.67575 2.51564
rclavicle -2.46493e-014 5.56597e-015
rhumerus -33.9024 17.4537 -61.8138
rradius 136.79
rwrist -74.639
rhand 58.3032 -1.45922
rfingers 7.12502
rthumb 74.1464 25.1053
lclavicle -2.46493e-014 5.56597e-015
lhumerus -21.9913 -10.1796 57.8204
lradius 142.204
lwrist 76.1698
lhand 34.7918 50.5002
lfingers 7.12502
lthumb 57.9556 66.2614
rfemur -33.079 -4.14099 11.3446
rtibia 63.1268
rfoot -29.1655 -19.5041
rtoes -17.6409
lfemur -29.8207 1.20487 -27.1978
ltibia 58.611
lfoot -32.0576 13.6731
ltoes -17.9261
3163
root 0.634601 16.3885 -0.0659099 4.32045 -2.69417 5.17953
lowerback 14.211 2.15082 -2.83312
upperback 6.52054 2.46479 0.18746
thorax -1.21076 1.17052 1.42184
lowerneck 6.24752 -6.67833 -5.72406
upperneck 0.560227 -9.2153 4.26839
head -0.398328 -4.66089 2.49408
rclavicle -1.98785e-014 1.98785e-014
rhumerus -33.7565 17.744 -61.5971
rradius 136.812
rwrist -74.8636
rhand 58.0729 -1.43829
rfingers 7.12502
rthumb 74.0721 24.3603
lclavicle -1.98785e-014 1.98785e-014
lhumerus -21.6573 -10.5105 57.584
lradius 142.122
lwrist 75.9797
lhand 35.0829 50.3926
lfingers 7.12502
lthumb 58.2094 65.9246
rfemur -32.9219 -4.24518 11.3694
rtibia 63.0371
rfoot -29.1888 -19.5061
rtoes -17.4093
lfemur -29.7359 1.14855 -27.1676
ltibia 58.5401
lfoot -32.0039 13.6177
ltoes -18.103
3164
root 0.636518 16.3942 -0.0652284 4.33578 -2.57578 5.2159
lowerback 14.1825 2.10004 -2.84207
upperback 6.51478 2.39869 0.201619
thorax -1.19952 1.13739 1.45256
lowerneck 6.10156 -6.6424 -5.69867
upperneck 0.653364 -9.16085 4.20673
head -0.350796 -4.6322 2.45965
rclavicle 2.18663e-014 -1.59028e-015
rhumerus -33.5637 18.0892 -61.4253
rradius 136.803
rwrist -75.0335
rhand 57.7679 -1.28345
rfingers 7.12502
rthumb 73.9693 23.5123
lclavicle 2.18663e-014 -1.59028e-015
lhumerus -21.4222 -10.6325 57.3689
lradius 142.025
lwrist 75.843
lhand 35.3557 50.2448
lfingers 7.12502
lthumb 58.4466 65.5586
rfemur -32.8498 -4.32951 11.3265
rtibia 62.956
rfoot -29.2105 -19.4826
rtoes -17.4136
lfemur -29.7056 1.10065 -27.2055
ltibia 58.4503
lfoot -31.9149 13.6034
ltoes -18.1988
3165
root 0.638106 16.4 -0.0650122 4.34807 -2.49131 5.24676
lowerback 14.1668 2.05725 -2.80645
upperback 6.505 2.3472 0.17991
thorax -1.19695 1.11292 1.41808
lowerneck 6.12786 -6.62749 -5.63451
upperneck 0.549509 -9.13732 4.1346
head -0.395849 -4.61907 2.42917
rclavicle 1.31198e-014 -1.66979e-014
rhumerus -33.3576 18.3463 -61.3222
rradius 136.724
rwrist -75.2471
rhand 57.599 -1.28226
rfingers 7.12502
rthumb 73.9102 22.9641
lclavicle 1.31198e-014 -1.66979e-014
lhumerus -21.2731 -10.5364 57.1297
lradius 142
lwrist 75.9141
lhand 35.3093 50.3857
lfingers 7.12502
lthumb 58.4063 65.7368
rfemur -32.787 -4.38922 11.2861
rtibia 62.8724
rfoot -29.1876 -19.4062
rtoes -16.9837
lfemur -29.6787 1.07665 -27.2303
ltibia 58.3616
lfoot -31.8346 13.4986
ltoes -18.0505
3166
root 0.638662 16.4056 -0.06472 4.33148 -2.43933 5.19586
lowerback 14.1999 2.01249 -2.71087
upperback 6.48743 2.29905 0.170636
thorax -1.2273 1.09138 1.36069
lowerneck 6.12202 -6.58273 -5.61361
upperneck 0.488648 -9.0756 4.13462
head -0.418442 -4.58794 2.42673
rclavicle -8.34896e-015 7.95139e-016
rhumerus -33.1771 18.5567 -61.2897
rradius 136.615
rwrist -75.4463
rhand 57.5049 -1.26287
rfingers 7.12502
rthumb 73.8766 22.6791
lclavicle -8.34896e-015 7.95139e-016
lhumerus -21.115 -10.4647 56.8941
lradius 142.016
lwrist 75.9386
lhand 35.3944 50.5461
lfingers 7.12502
lthumb 58.4802 65.8286
rfemur -32.7035 -4.39 11.3423
rtibia 62.7909
rfoot -29.1964 -19.3404
rtoes -16.6138
lfemur -29.6297 1.13694 -27.1622
ltibia 58.2863
lfoot -31.7525 13.4515
ltoes -18.3492
3167
root 0.638523 16.4096 -0.0661915 4.32212 -2.39274 5.11973
lowerback 14.2459 1.95945 -2.59768
upperback 6.46759 2.2417 0.154864
thorax -1.26583 1.06571 1.28764
lowerneck 6.07616 -6.53993 -5.60806
upperneck 0.468959 -9.01579 4.18139
head -0.418154 -4.55839 2.4391
rclavicle 3.97569e-016 -1.35174e-014
rhumerus -33.0493 18.6946 -61.3038
rradius 136.541
rwrist -75.5825
rhand 57.6225 -1.30338
rfingers 7.12502
rthumb 73.9185 23.0191
lclavicle 3.97569e-016 -1.35174e-014
lhumerus -20.8792 -10.4105 56.6644
lradius 142.001
lwrist 75.9197
lhand 35.714 50.5677
lfingers 7.12502
lthumb 58.7574 65.5894
rfemur -32.6489 -4.40367 11.4369
rtibia 62.7173
rfoot -29.1888 -19.3627
rtoes -16.7399
lfemur -29.6048 1.20742 -27.0668
ltibia 58.237
lfoot -31.7093 13.3996
ltoes -18.6064
3168
root 0.638727 16.4129 -0.067117 4.28835 -2.34412 5.1248
lowerback 14.302 1.92329 -2.55914
upperback 6.46412 2.19666 0.124227
thorax -1.295 1.04477 1.23925
lowerneck 6.00192 -6.51826 -5.56216
upperneck 0.494685 -8.9812 4.15631
head -0.402326 -4.54033 2.41857
rclavicle 1.86858e-014 -2.38542e-015
rhumerus -32.984 18.7181 -61.3159
rradius 136.479
rwrist -75.6028
rhand 57.7022 -1.40902
rfingers 7.12502
rthumb 73.9465 23.1725
lclavicle 1.86858e-014 -2.38542e-015
lhumerus -20.7112 -10.3733 56.4781
lradius 141.988
lwrist 75.9145
lhand 35.813 50.5249
lfingers 7.12502
lthumb 58.8432 65.4648
rfemur -32.5731 -4.43431 11.429
rtibia 62.6575
rfoot -29.1678 -19.394
rtoes -16.8882
lfemur -29.5489 1.22346 -27.0618
ltibia 58.1952
lfoot -31.7147 13.3024
ltoes -18.5191
3169
root 0.640093 16.4151 -0.0671738 4.27465 -2.33339 5.18219
lowerback 14.3437 1.90074 -2.5867
upperback 6.44503 2.16102 0.0861354
thorax -1.33527 1.02766 1.21898
lowerneck 6.03792 -6.49428 -5.49378
upperneck 0.427985 -8.94621 4.09149
head -0.437508 -4.52186 2.38901
rclavicle -2.94201e-014 2.38542e-015
rhumerus -32.9169 18.7366 -61.2899
rradius 136.376
rwrist -75.5774
rhand 57.6718 -1.36011
rfingers 7.12502
rthumb 73.9358 23.1224
lclavicle -2.94201e-014 2.38542e-015
lhumerus -20.684 -10.4204 56.2788
lradius 142.03
lwrist 75.8836
lhand 35.6664 50.5764
lfingers 7.12502
lthumb 58.7162 65.6373
rfemur -32.5364 -4.46136 11.3572
rtibia 62.6243
rfoot -29.1526 -19.3847
rtoes -16.9923
lfemur -29.5212 1.25843 -27.1281
ltibia 58.1659
lfoot -31.6508 13.3078
ltoes -18.7391
3170
root 0.641064 16.4164 -0.067713 4.29284 -2.32051 5.20781
lowerback 14.3395 1.87211 -2.60881
upperback 6.42651 2.12004 0.0657849
thorax -1.35078 1.00751 1.21633
lowerneck 6.08402 -6.46752 -5.41452
upperneck 0.364943 -8.90766 3.98533
head -0.475708 -4.50106 2.3445
rclavicle -3.57812e-014 4.77083e-015
rhumerus -32.8528 18.7371 -61.2942
rradius 136.285
rwrist -75.5199
rhand 57.7275 -1.32888
rfingers 7.12502
rthumb 73.9553 23.3352
lclavicle -3.57812e-014 4.77083e-015
lhumerus -20.6942 -10.5321 56.0942
lradius 142.103
lwrist 75.8999
lhand 35.4439 50.4569
lfingers 7.12502
lthumb 58.5232 65.6994
rfemur -32.5473 -4.47549 11.3273
rtibia 62.6073
rfoot -29.1416 -19.3883
rtoes -17.0545
lfemur -29.5357 1.29362 -27.1539
ltibia 58.1478
lfoot -31.6172 13.2071
ltoes -18.4664
3171
root 0.640872 16.4165 -0.0690444 4.29403 -2.4094 5.22676
lowerback 14.3563 1.88905 -2.64128
upperback 6.41555 2.13622 0.0316549
thorax -1.37163 1.01564 1.19582
lowerneck 6.08576 -6.44748 -5.41074
upperneck 0.337082 -8.88046 3.99938
head -0.485792 -4.48759 2.34912
rclavicle -9.93923e-015 1.11319e-014
rhumerus -32.813 18.6775 -61.3402
rradius 136.219
rwrist -75.4308
rhand 57.6779 -1.22843
rfingers 7.12502
rthumb 73.938 23.274
lclavicle -9.93923e-015 1.11319e-014
lhumerus -20.678 -10.5454 55.9092
lradius 142.159
lwrist 75.999
lhand 35.1236 50.3263
lfingers 7.12502
lthumb 58.2448 65.8261
rfemur -32.5885 -4.42934 11.3014
rtibia 62.6171
rfoot -29.1228 -19.3772
rtoes -17.0114
lfemur -29.5313 1.43506 -27.1788
ltibia 58.1406
lfoot -31.6402 13.1338
ltoes -18.2728
